# xmcd
#
# Track frame offsets:
#	150
#	14269
#	27497
#	41036
#	57451
#	72592
#	86901
#	98352
#	110961
#	126927
#	141744
#	154177
#	167696
#	182907
#
# Disc length: 2635 seconds
#
# Revision: 2
# Processed by: cddbd v1.5.2PL0 Copyright (c) Steve Scherf et al.
# Submitted via: EasyCDDAExtractor 2010.6.0.0
#
DISCID=d30a490e
DTITLE=Jan Smit - So lange nicht mehr im Himmel and Laura
DYEAR=2006
DGENRE=Country
TTITLE0=So lange nicht mehr im Himmel
TTITLE1=Richtig gute Freunde
TTITLE2=Ich will nicht nur davon träumen
TTITLE3=Lass das Ende des Sommers nie kommen
TTITLE4=Ein wenig spanisch
TTITLE5=Laura
TTITLE6=Paris
TTITLE7=Aus purem Gold
TTITLE8=Eine Nacht vielleicht
TTITLE9=Gott Amor
TTITLE10=Wie ein Vogel so frei
TTITLE11=Neuer Morgen - neues Leben
TTITLE12=Einfach für immer bleiben
TTITLE13=Gott Amor (unplugged version)
EXTD=
EXTT0=
EXTT1=
EXTT2=
EXTT3=
EXTT4=
EXTT5=
EXTT6=
EXTT7=
EXTT8=
EXTT9=
EXTT10=
EXTT11=
EXTT12=
EXTT13=
PLAYORDER=
